<svg width="116" height="26" viewBox="0 0 116 26" fill="none" xmlns="http://www.w3.org/2000/svg">
<g id="Logo">
<g id="Group 677">
<g id="Reddel">
<path d="M2 25.1883V0H11.9376C13.8398 0 15.4633 0.340272 16.808 1.02082C18.1609 1.69316 19.1899 2.64838 19.895 3.88648C20.6084 5.11638 20.965 6.56356 20.965 8.22802C20.965 9.90068 20.6043 11.3397 19.8827 12.545C19.1612 13.7421 18.1158 14.6604 16.7465 15.2999C15.3854 15.9395 13.7373 16.2593 11.8023 16.2593H5.14854V11.9792H10.9414C11.9581 11.9792 12.8026 11.8398 13.475 11.561C14.1473 11.2823 14.6475 10.8641 14.9754 10.3066C15.3116 9.749 15.4797 9.05615 15.4797 8.22802C15.4797 7.39169 15.3116 6.68655 14.9754 6.1126C14.6475 5.53864 14.1432 5.10408 13.4627 4.8089C12.7903 4.50553 11.9417 4.35384 10.9168 4.35384H7.32546V25.1883H2ZM15.6027 13.7257L21.8629 25.1883H15.9839L9.85905 13.7257H15.6027Z" fill="#3153CA"/>
<path d="M32.935 25.5573C30.9918 25.5573 29.3191 25.1637 27.917 24.3766C26.5232 23.5813 25.449 22.458 24.6947 21.0067C23.9404 19.5472 23.5632 17.8212 23.5632 15.8288C23.5632 13.8856 23.9404 12.1801 24.6947 10.7124C25.449 9.24474 26.5109 8.10093 27.8801 7.281C29.2576 6.46107 30.8729 6.0511 32.7259 6.0511C33.9722 6.0511 35.1324 6.25199 36.2066 6.65375C37.2889 7.04732 38.2318 7.64177 39.0353 8.43711C39.847 9.23244 40.4784 10.2328 40.9294 11.4381C41.3803 12.6352 41.6058 14.0372 41.6058 15.6443V17.0833H25.654V13.8364H36.6739C36.6739 13.082 36.5099 12.4138 36.182 11.8316C35.854 11.2495 35.3989 10.7944 34.8168 10.4664C34.2428 10.1303 33.5746 9.96218 32.812 9.96218C32.0167 9.96218 31.3116 10.1467 30.6966 10.5156C30.0899 10.8764 29.6143 11.3643 29.2699 11.9792C28.9256 12.586 28.7493 13.2624 28.7411 14.0085V17.0956C28.7411 18.0303 28.9133 18.8379 29.2576 19.5185C29.6102 20.199 30.1063 20.7238 30.7458 21.0928C31.3853 21.4617 32.1438 21.6462 33.0211 21.6462C33.6033 21.6462 34.1362 21.5642 34.62 21.4002C35.1037 21.2362 35.5178 20.9903 35.8622 20.6623C36.2066 20.3343 36.4689 19.9326 36.6493 19.457L41.4951 19.7768C41.2491 20.9411 40.7449 21.9578 39.9823 22.8269C39.228 23.6878 38.2523 24.3602 37.0552 24.844C35.8663 25.3195 34.4929 25.5573 32.935 25.5573Z" fill="#3153CA"/>
<path d="M51.9861 25.4958C50.5513 25.4958 49.2517 25.1268 48.0874 24.3889C46.9313 23.6428 46.0129 22.5481 45.3324 21.1051C44.6601 19.6538 44.3239 17.8745 44.3239 15.7673C44.3239 13.6027 44.6724 11.8029 45.3693 10.368C46.0662 8.92496 46.9928 7.84675 48.1489 7.13341C49.3132 6.41187 50.5882 6.0511 51.9739 6.0511C53.0316 6.0511 53.913 6.23149 54.6181 6.59226C55.3315 6.94483 55.9054 7.38759 56.34 7.92055C56.7828 8.4453 57.1189 8.96186 57.3485 9.47022H57.5084V0H62.7355V25.1883H57.5699V22.1628H57.3485C57.1025 22.6875 56.7541 23.2082 56.3031 23.7247C55.8603 24.2331 55.2823 24.6554 54.5689 24.9915C53.8638 25.3277 53.0029 25.4958 51.9861 25.4958ZM53.6465 21.3264C54.491 21.3264 55.2044 21.0969 55.7865 20.6377C56.3769 20.1703 56.8279 19.5185 57.1394 18.6822C57.4592 17.8458 57.6191 16.866 57.6191 15.7427C57.6191 14.6194 57.4633 13.6437 57.1517 12.8155C56.8401 11.9874 56.3892 11.3479 55.7988 10.8969C55.2085 10.4459 54.491 10.2205 53.6465 10.2205C52.7856 10.2205 52.0599 10.4541 51.4696 10.9215C50.8792 11.3889 50.4324 12.0366 50.129 12.8647C49.8256 13.6929 49.6739 14.6522 49.6739 15.7427C49.6739 16.8414 49.8256 17.813 50.129 18.6576C50.4406 19.4939 50.8874 20.1498 51.4696 20.6254C52.0599 21.0928 52.7856 21.3264 53.6465 21.3264Z" fill="#3153CA"/>
<path d="M74.0044 25.4958C72.5695 25.4958 71.2699 25.1268 70.1056 24.3889C68.9495 23.6428 68.0312 22.5481 67.3507 21.1051C66.6783 19.6538 66.3421 17.8745 66.3421 15.7673C66.3421 13.6027 66.6906 11.8029 67.3876 10.368C68.0845 8.92496 69.011 7.84675 70.1671 7.13341C71.3314 6.41187 72.6064 6.0511 73.9921 6.0511C75.0498 6.0511 75.9313 6.23149 76.6364 6.59226C77.3497 6.94483 77.9237 7.38759 78.3583 7.92055C78.801 8.4453 79.1372 8.96186 79.3668 9.47022H79.5267V0H84.7537V25.1883H79.5882V22.1628H79.3668C79.1208 22.6875 78.7723 23.2082 78.3214 23.7247C77.8786 24.2331 77.3005 24.6554 76.5872 24.9915C75.882 25.3277 75.0211 25.4958 74.0044 25.4958ZM75.6648 21.3264C76.5093 21.3264 77.2226 21.0969 77.8048 20.6377C78.3951 20.1703 78.8461 19.5185 79.1577 18.6822C79.4775 17.8458 79.6373 16.866 79.6373 15.7427C79.6373 14.6194 79.4816 13.6437 79.17 12.8155C78.8584 11.9874 78.4074 11.3479 77.8171 10.8969C77.2267 10.4459 76.5093 10.2205 75.6648 10.2205C74.8038 10.2205 74.0782 10.4541 73.4879 10.9215C72.8975 11.3889 72.4506 12.0366 72.1473 12.8647C71.8439 13.6929 71.6922 14.6522 71.6922 15.7427C71.6922 16.8414 71.8439 17.813 72.1473 18.6576C72.4588 19.4939 72.9057 20.1498 73.4879 20.6254C74.0782 21.0928 74.8038 21.3264 75.6648 21.3264Z" fill="#3153CA"/>
<path d="M97.6707 25.5573C95.7275 25.5573 94.0548 25.1637 92.6527 24.3766C91.2589 23.5813 90.1847 22.458 89.4304 21.0067C88.6761 19.5472 88.2989 17.8212 88.2989 15.8288C88.2989 13.8856 88.6761 12.1801 89.4304 10.7124C90.1847 9.24474 91.2466 8.10093 92.6159 7.281C93.9933 6.46107 95.6086 6.0511 97.4616 6.0511C98.7079 6.0511 99.8681 6.25199 100.942 6.65375C102.025 7.04732 102.967 7.64177 103.771 8.43711C104.583 9.23244 105.214 10.2328 105.665 11.4381C106.116 12.6352 106.342 14.0372 106.342 15.6443V17.0833H90.3897V13.8364H101.41C101.41 13.082 101.246 12.4138 100.918 11.8316C100.59 11.2495 100.135 10.7944 99.5525 10.4664C98.9785 10.1303 98.3103 9.96218 97.5477 9.96218C96.7524 9.96218 96.0473 10.1467 95.4323 10.5156C94.8256 10.8764 94.35 11.3643 94.0056 11.9792C93.6613 12.586 93.485 13.2624 93.4768 14.0085V17.0956C93.4768 18.0303 93.649 18.8379 93.9933 19.5185C94.3459 20.199 94.842 20.7238 95.4815 21.0928C96.1211 21.4617 96.8795 21.6462 97.7568 21.6462C98.339 21.6462 98.8719 21.5642 99.3557 21.4002C99.8395 21.2362 100.254 20.9903 100.598 20.6623C100.942 20.3343 101.205 19.9326 101.385 19.457L106.231 19.7768C105.985 20.9411 105.481 21.9578 104.718 22.8269C103.964 23.6878 102.988 24.3602 101.791 24.844C100.602 25.3195 99.2286 25.5573 97.6707 25.5573Z" fill="#3153CA"/>
<path d="M115 0V25.1883H109.761V0H115Z" fill="#3153CA"/>
</g>
<circle id="Ellipse 233" cx="39.4505" cy="5.0301" r="5.00569" fill="#FF3D00"/>
</g>
</g>
</svg>
